{"title":"Oblivion.2013.480p.BRRip.x264-Fastbet99","uid":8742712,"size":1155160121,"categoryP":"video","categoryS":"movies","magnet":"?xt=urn:btih:f88f215866178d9b05ef24c37e6aa91641dbdad1&amp;dn=Oblivion.2013.480p.BRRip.x264-Fastbet99&amp;tr=udp%3A%2F%2Ftracker.openbittorrent.com%3A80&amp;tr=udp%3A%2F%2Fopen.demonii.com%3A1337&amp;tr=udp%3A%2F%2Ftracker.coppersurfer.tk%3A6969&amp;tr=udp%3A%2F%2Fexodus.desync.com%3A6969","seeders":2,"leechers":0,"uploader":"Fastbet99","files":-1,"time":1374832768,"description":"Oblivion (2013)\n\nIMDB Info\t\t\t\t : http://www.imdb.com/title/tt1483013/\n\nSource\t\t\t\t\t : 720p-SPARKS (Thanks)\nComplete name                            : Oblivion.2013.480p.BRRip.x264-Fastbet99.mp4\nFormat                                   : MPEG-4\nFormat profile                           : Base Media\nCodec ID                                 : isom\nFile size                                : 1.08 GiB\nDuration                                 : 2h 4mn\nOverall bit rate mode                    : Variable\nOverall bit rate                         : 1 235 Kbps\n\n\nVideo\nID                                       : 1\nFormat                                   : AVC\nFormat/Info                              : Advanced Video Codec\nFormat profile                           : &lt;a class=&quot;__cf_email__&quot; href=&quot;/cdn-cgi/l/email-protection&quot; data-cfemail=&quot;347c5d535c7478001a05&quot;&gt;[email&amp;#160;protected]&lt;/a&gt;&lt;script cf-hash='f9e31' type=&quot;text/javascript&quot;&gt;\n/* &lt;![CDATA[ */!function(){try{var t=&quot;currentScript&quot;in document?document.currentScript:function(){for(var t=document.getElementsByTagName(&quot;script&quot;),e=t.length;e--;)if(t[e].getAttribute(&quot;cf-hash&quot;))return t[e]}();if(t&amp;&amp;t.previousSibling){var e,r,n,i,c=t.previousSibling,a=c.getAttribute(&quot;data-cfemail&quot;);if(a){for(e=&quot;&quot;,r=parseInt(a.substr(0,2),16),n=2;a.length-n;n+=2)i=parseInt(a.substr(n,2),16)^r,e+=String.fromCharCode(i);e=document.createTextNode(e),c.parentNode.replaceChild(e,c)}}}catch(u){}}();/* ]]&gt; */&lt;/script&gt;\nFormat settings, CABAC                   : Yes\nFormat settings, ReFrames                : 4 frames\nCodec ID                                 : avc1\nCodec ID/Info                            : Advanced Video Coding\nDuration                                 : 2h 4mn\nBit rate                                 : 1 135 Kbps\nMaximum bit rate                         : 10.0 Mbps\nWidth                                    : 854 pixels\nHeight                                   : 352 pixels\nDisplay aspect ratio                     : 2.40:1\nFrame rate mode                          : Constant\nFrame rate                               : 23.976 fps\nColor space                              : YUV\nChroma subsampling                       : 4:2:0\nBit depth                                : 8 bits\nScan type                                : Progressive\nBits/(Pixel*Frame)                       : 0.157\nStream size                              : 1 012 MiB (92%)\nWriting library                          : x264 core 133 r2334 a3ac64b\n\n\nAudio\nID                                       : 2\nFormat                                   : AAC\nFormat/Info                              : Advanced Audio Codec\nFormat profile                           : LC\nCodec ID                                 : 40\nDuration                                 : 2h 4mn\nBit rate mode                            : Variable\nBit rate                                 : 96.0 Kbps\nMaximum bit rate                         : 134 Kbps\nChannel(s)                               : 2 channels\nChannel positions                        : Front: L R\nSampling rate                            : 48.0 KHz\nCompression mode                         : Lossy\nStream size                              : 85.4 MiB (8%)\nLanguage                                 : English\n\n\nText\nID                                       : 3\nFormat                                   : Timed Text\nCodec ID                                 : tx3g\nDuration                                 : 1h 58mn\nBit rate mode                            : Variable\nBit rate                                 : 41 bps\nStream size                              : 35.7 KiB (0%)\nEncoder\t\t\t\t\t : Fastbet99\n\nScreenshots &lt;a href=&quot;\nhttp://lookpic.com/O/i2/1456/lSWRyoYt.jpeg&quot; rel=&quot;nofollow&quot; target=&quot;_NEW&quot;&gt;\nhttp://lookpic.com/O/i2/1456/lSWRyoYt.jpeg&lt;/a&gt;","torrent":{"xt":"urn:btih:f88f215866178d9b05ef24c37e6aa91641dbdad1","amp;dn":"Oblivion.2013.480p.BRRip.x264-Fastbet99","amp;tr":["udp%3A%2F%2Ftracker.openbittorrent.com%3A80","udp%3A%2F%2Fopen.demonii.com%3A1337","udp%3A%2F%2Ftracker.coppersurfer.tk%3A6969","udp%3A%2F%2Fexodus.desync.com%3A6969"],"infoHash":"f88f215866178d9b05ef24c37e6aa91641dbdad1","infoHashBuffer":{"type":"Buffer","data":[248,143,33,88,102,23,141,155,5,239,36,195,126,106,169,22,65,219,218,209]},"announce":[],"urlList":[]}}